<?xml version="1.0" encoding="UTF-8"?>
<svg id="Effect_over" xmlns="http://www.w3.org/2000/svg" viewBox="0 0 40 24"><defs><style>.cls-1{stroke-width:0px;}</style></defs><path class="cls-1" d="m37.1189519,11.3418961c-2.0625,0-3.1630859.8808594-4.0478516,1.5888672-.8027344.6425781-1.4365234,1.1503906-2.796875,1.1503906-1.359375,0-1.9931641-.5078125-2.7958984-1.1503906-.8837891-.7080078-1.984375-1.5888672-4.0458984-1.5888672-2.0625,0-3.1640625.8808594-4.0488281,1.5888672-.8027344.6425781-1.4375,1.1503906-2.7988281,1.1503906-1.3623047,0-1.9970703-.5078125-2.8017578-1.1503906-.8847656-.7080078-1.9863281-1.5888672-4.0498047-1.5888672s-3.1650391.8808594-4.0498047,1.5888672c-.8046875.6425781-1.4394531,1.1503906-2.8017578,1.1503906-.5527344,0-1,.4472656-1,1s.4472656,1,1,1c2.0634766,0,3.1650391-.8808594,4.0498047-1.5888672.8046875-.6425781,1.4394531-1.1503906,2.8017578-1.1503906s1.9970703.5078125,2.8017578,1.1503906c.8847656.7080078,1.9863281,1.5888672,4.0498047,1.5888672,2.0625,0,3.1640625-.8808594,4.0488281-1.5888672.8027344-.6425781,1.4375-1.1503906,2.7988281-1.1503906,1.359375,0,1.9931641.5078125,2.7958984,1.1503906.8837891.7080078,1.984375,1.5888672,4.0458984,1.5888672s3.1621094-.8808594,4.046875-1.5888672c.8027344-.6425781,1.4375-1.1503906,2.7978516-1.1503906.5527344,0,1-.4472656,1-1s-.4472656-1-1-1Z"/></svg>