<svg width="29" height="26" viewBox="0 0 29 26" fill="none" xmlns="http://www.w3.org/2000/svg">
<path d="M28.2756 12.0759H16.5576C16.0396 11.9268 15.5192 11.7874 14.9966 11.6577C11.7206 10.8288 9.86797 10.2221 9.86797 7.38452C9.84137 6.89468 9.90914 6.40422 10.0671 5.94358C10.225 5.48295 10.4698 5.06196 10.7861 4.70677C11.7771 3.83478 13.0183 3.3543 14.3013 3.34604C17.603 3.25866 19.1255 4.45709 20.3703 6.27971L22.2545 4.80664C21.3725 3.45135 20.1701 2.37088 18.7701 1.67561C17.3702 0.98034 15.8228 0.695194 14.2861 0.849303C12.3985 0.862199 10.5775 1.59776 9.1528 2.92285C8.61281 3.50895 8.19075 4.20721 7.91264 4.97456C7.63454 5.74191 7.50629 6.56209 7.5358 7.38452C7.48464 8.28445 7.64263 9.18393 7.99564 10.0026C8.34866 10.8212 8.88571 11.5335 9.5588 12.0759H0.275635V14.5726H16.203C18.4978 15.2842 19.8698 16.2105 19.9048 18.7647C19.9427 19.3103 19.8728 19.8583 19.6995 20.373C19.5262 20.8877 19.2535 21.3576 18.8991 21.752C17.6646 22.7933 16.1308 23.3443 14.5591 23.3112C13.3861 23.2749 12.2361 22.9535 11.1962 22.3715C10.1563 21.7895 9.25366 20.9621 8.55663 19.9519L6.76813 21.5548C7.67432 22.847 8.84352 23.9015 10.1871 24.6384C11.5307 25.3753 13.0135 25.7753 14.523 25.808H14.6396C16.7942 25.8344 18.8854 25.0281 20.529 23.5372C21.1123 22.9078 21.5658 22.1546 21.8602 21.3261C22.1546 20.4976 22.2833 19.6123 22.2381 18.7272C22.2817 17.2132 21.8042 15.7348 20.8965 14.5726H28.2756V12.0759Z" fill="#212529"/>
</svg>
